<svg xmlns:dc="http://purl.org/dc/elements/1.1/" xmlns:cc="http://creativecommons.org/ns#" xmlns:rdf="http://www.w3.org/1999/02/22-rdf-syntax-ns#" xmlns:svg="http://www.w3.org/2000/svg" xmlns="http://www.w3.org/2000/svg" xmlns:xlink="http://www.w3.org/1999/xlink" id="svg148583" viewBox="0 0 1024 768" height="768px" width="1024px" version="1.1">
  <metadata id="metadata148589">
    <rdf:rdf>
      <cc:work rdf:about="">
        <dc:format>image/svg+xml</dc:format>
        <dc:type rdf:resource="http://purl.org/dc/dcmitype/StillImage"></dc:type>
      </cc:work>
    </rdf:rdf>
  </metadata>
  <defs id="defs148587"></defs>
  <linearGradient spreadMethod="pad" y2="30%" x2="-10%" y1="120%" x1="30%" id="3d_gradient2-logo-a0b8a720-a2cc-4076-ac70-70bff2f25204">
    <stop id="stop148564" stop-opacity="1" stop-color="#ffffff" offset="0%"></stop>
    <stop id="stop148566" stop-opacity="1" stop-color="#000000" offset="100%"></stop>
  </linearGradient>
  <linearGradient gradientTransform="rotate(-30)" spreadMethod="pad" y2="30%" x2="-10%" y1="120%" x1="30%" id="3d_gradient3-logo-a0b8a720-a2cc-4076-ac70-70bff2f25204">
    <stop id="stop148569" stop-opacity="1" stop-color="#ffffff" offset="0%"></stop>
    <stop id="stop148571" stop-opacity="1" stop-color="#cccccc" offset="50%"></stop>
    <stop id="stop148573" stop-opacity="1" stop-color="#000000" offset="100%"></stop>
  </linearGradient>
  <g id="logo-group">
    <image xlink:href="" id="container" x="272" y="144" width="480" height="480" style="display: none;" transform="translate(0 0)"></image>
    <g id="logo-center" transform="translate(285.866065 0)">
      <image xlink:href="" id="icon_container" style="display: none;" x="0" y="0"></image>
      <g id="slogan" style="font-style:normal;font-weight:400;font-size:32px;line-height:1;font-family:'Roboto Slab';font-variant-ligatures:none;text-align:center;text-anchor:middle" transform="translate(0 0)"></g>
      <g id="title" style="font-style:normal;font-weight:normal;font-size:72px;line-height:1;font-family:'Brandmark Serif 6';font-variant-ligatures:normal;text-align:center;text-anchor:middle" transform="translate(0 0)">
        <path id="path148592" style="font-style:normal;font-weight:normal;font-size:72px;line-height:1;font-family:'Brandmark Serif 6';font-variant-ligatures:normal;text-align:center;text-anchor:middle" d="m 336.86394,-16.848 c 0,11.592 7.848,17.424 17.928,17.424 8.352,0 15.624,-4.68 21.096,-10.8 2.448,-2.736 4.464,-5.688 6.12,-8.712 0.072,-1.584 0.36,-3.168 0.72,-4.608 1.656,-6.048 5.688,-10.368 10.368,-10.368 6.12,0 11.088,7.344 11.088,16.416 0,9 -4.968,16.344 -11.088,16.344 -4.68,0 -8.64,-4.248 -10.296,-10.224 -0.36,-1.296 -2.016,-1.584 -2.736,-0.504 -0.864,1.368 -1.872,2.664 -2.952,3.888 3.312,5.184 9.216,8.568 15.984,8.568 10.368,0 18.792,-8.136 18.792,-18.072 0,-10.008 -8.424,-18.144 -18.792,-18.144 -10.368,0 -18.792,8.136 -18.792,18.144 0,1.944 0.36,3.888 0.936,5.688 -4.968,5.616 -10.944,8.928 -16.992,8.928 -7.128,0 -13.68,-3.96 -13.68,-16.416 0,-9.792 5.832,-14.616 9.936,-14.616 3.96,0 9.072,4.32 5.76,11.592 0,0 6.696,-0.072 6.696,-6.624 0,-6.552 -12.456,-6.696 -12.456,-6.696 -10.08,0 -17.64,7.272 -17.64,18.792 z" stroke-width="0" stroke-linejoin="miter" stroke-miterlimit="2" fill="#000000" stroke="#000000" transform="translate(0 298.576) translate(50 69.72800000000001) scale(1) translate(-336.86394 35.64)"></path>
        <path id="path148594" style="font-style:normal;font-weight:normal;font-size:72px;line-height:1;font-family:'Brandmark Serif 6';font-variant-ligatures:normal;text-align:center;text-anchor:middle" d="m 452.04369,-5.976 v -43.416 h -11.448 c -0.216,0 -0.36,0.144 -0.36,0.36 0,0.216 0.144,0.36 0.36,0.36 2.088,0 3.744,1.728 3.744,3.816 v 12.24 c -2.232,-1.8 -5.184,-3.024 -9.072,-3.024 -8.64,0 -16.56,8.136 -16.56,18.144 0,9.936 6.048,18.072 14.688,18.072 4.752,0 8.352,-4.104 10.944,-8.424 0.792,5.04 4.248,7.848 9,7.848 -0.936,-1.224 -1.296,-3.888 -1.296,-5.976 z m -26.136,-12.528 c 0,-9.864 4.104,-15.408 10.224,-15.408 3.456,0 6.264,1.296 8.208,3.384 v 21.096 c -2.088,3.096 -5.04,4.968 -8.712,4.968 -6.12,0 -9.72,-4.464 -9.72,-14.04 z" stroke-width="0" stroke-linejoin="miter" stroke-miterlimit="2" fill="#100724" stroke="#100724" transform="translate(0 298.576) translate(131.84375 55.976) scale(1) translate(-418.70769 49.392)"></path>
        <path id="path148596" style="font-style:normal;font-weight:normal;font-size:72px;line-height:1;font-family:'Brandmark Serif 6';font-variant-ligatures:normal;text-align:center;text-anchor:middle" d="m 468.09181,-40.104 c 2.736,0 4.968,-2.232 4.968,-4.968 0,-2.736 -2.232,-4.896 -4.968,-4.896 -2.736,0 -4.968,2.16 -4.968,4.896 0,2.736 2.232,4.968 4.968,4.968 z m -7.992,5.4 c 0,0.216 0.144,0.432 0.36,0.432 2.088,0 3.816,1.656 3.816,3.744 v 26.712 c -0.36,1.728 -1.872,3.096 -3.744,3.096 -0.216,0 -0.36,0.144 -0.36,0.36 0,0.216 0.144,0.36 0.36,0.36 h 15.192 c 0.216,0 0.36,-0.144 0.36,-0.36 0,-0.216 -0.144,-0.36 -0.36,-0.36 -2.088,0 -3.816,-1.728 -3.816,-3.816 v -30.528 h -11.448 c -0.216,0 -0.36,0.216 -0.36,0.36 z" stroke-width="0" stroke-linejoin="miter" stroke-miterlimit="2" fill="#200f49" stroke="#200f49" transform="translate(0 298.576) translate(173.23586999999998 55.4) scale(1) translate(-460.09981 49.968)"></path>
        <path id="path148598" style="font-style:normal;font-weight:normal;font-size:72px;line-height:1;font-family:'Brandmark Serif 6';font-variant-ligatures:normal;text-align:center;text-anchor:middle" d="m 499.41294,-49.968 c -7.128,0 -13.032,2.88 -13.176,14.328 h -0.072 v 2.016 h -5.472 v 1.44 h 5.472 v 27.648 c 0,2.088 -1.656,3.816 -3.744,3.816 -0.216,0 -0.36,0.144 -0.36,0.36 0,0.216 0.144,0.36 0.36,0.36 h 15.192 c 0.216,0 0.432,-0.144 0.432,-0.36 0,-0.216 -0.216,-0.36 -0.432,-0.36 -2.088,0 -3.744,-1.728 -3.744,-3.816 v -27.648 h 5.472 v -1.44 h -5.472 v -1.44 l 0.072,-3.672 c 0,-4.32 1.152,-10.152 5.4,-10.152 2.592,0 5.112,4.32 4.248,9.576 0,0 4.752,-1.44 4.752,-5.184 0,-3.744 -4.464,-5.472 -8.928,-5.472 z" stroke-width="0" stroke-linejoin="miter" stroke-miterlimit="2" fill="#30166d" stroke="#30166d" transform="translate(0 298.576) translate(193.82900000000004 55.4) scale(1) translate(-480.69294 49.968)"></path>
        <path id="path148600" style="font-style:normal;font-weight:normal;font-size:72px;line-height:1;font-family:'Brandmark Serif 6';font-variant-ligatures:normal;text-align:center;text-anchor:middle" d="m 502.81606,-34.704 c 0,0.216 0.144,0.432 0.36,0.432 2.088,0 4.968,1.656 5.904,3.744 l 14.256,31.104 -2.448,5.76 c -1.368,3.24 -2.736,6.624 -5.544,6.624 -3.312,0 -6.696,-5.256 -3.096,-10.296 0,0 -7.056,0 -7.056,6.336 0,6.264 6.912,6.48 6.912,6.48 4.536,0 7.416,-2.448 8.568,-5.184 l 17.424,-41.544 c 1.152,-1.728 3.384,-3.024 5.256,-3.024 0.216,0 0.36,-0.216 0.36,-0.432 0,-0.144 -0.144,-0.36 -0.36,-0.36 h -8.928 c -0.216,0 -0.36,0.216 -0.36,0.36 0,0.216 0.144,0.432 0.36,0.432 2.088,0 2.808,1.584 1.944,3.672 l -9.432,22.464 -10.584,-23.184 c -0.504,-1.728 0.216,-2.952 2.016,-2.952 0.216,0 0.36,-0.216 0.36,-0.432 0,-0.144 -0.144,-0.36 -0.36,-0.36 h -15.192 c -0.216,0 -0.36,0.216 -0.36,0.36 z" stroke-width="0" stroke-linejoin="miter" stroke-miterlimit="2" fill="#3f1e91" stroke="#3f1e91" transform="translate(0 298.576) translate(215.95211999999998 70.304) scale(1) translate(-502.81606 35.064)"></path>
        <path id="path148602" style="font-style:normal;font-weight:normal;font-size:72px;line-height:1;font-family:'Brandmark Serif 6';font-variant-ligatures:normal;text-align:center;text-anchor:middle" d="m 588.17656,-0.72 c -2.088,0 -3.744,-1.728 -3.744,-3.816 v -19.296 c 0,0 0,-11.808 -11.88,-11.808 -6.624,0 -11.16,5.112 -13.176,7.92 v -7.344 h -11.448 c -0.216,0 -0.36,0.216 -0.36,0.36 0,0.216 0.144,0.432 0.36,0.432 2.088,0 3.816,1.656 3.816,3.744 v 25.992 c 0,2.088 -1.728,3.816 -3.816,3.816 -0.216,0 -0.36,0.144 -0.36,0.36 0,0.216 0.144,0.36 0.36,0.36 h 15.264 c 0.216,0 0.36,-0.144 0.36,-0.36 0,-0.216 -0.144,-0.36 -0.36,-0.36 -2.088,0 -3.816,-1.728 -3.816,-3.816 v -21.096 c 1.944,-3.168 6.84,-8.28 10.368,-8.28 2.88,0 6.984,2.664 6.984,10.08 v 19.296 c 0,2.088 -1.656,3.816 -3.744,3.816 -0.216,0 -0.36,0.144 -0.36,0.36 0,0.216 0.144,0.36 0.36,0.36 h 15.192 c 0.216,0 0.36,-0.144 0.36,-0.36 0,-0.216 -0.144,-0.36 -0.36,-0.36 z" stroke-width="0" stroke-linejoin="miter" stroke-miterlimit="2" fill="#4f25b5" stroke="#4f25b5" transform="translate(0 298.576) translate(260.7046200000001 69.72800000000001) scale(1) translate(-547.56856 35.64)"></path>
        <path id="path148604" style="font-style:normal;font-weight:normal;font-size:72px;line-height:1;font-family:'Brandmark Serif 6';font-variant-ligatures:normal;text-align:center;text-anchor:middle" d="m 614.66244,-2.88 c -5.688,0 -12.96,-3.96 -12.96,-16.416 0,-1.008 0.072,-2.016 0.144,-2.88 h 23.112 c 0,-5.76 -0.792,-13.464 -13.32,-13.464 -10.08,0 -17.64,7.272 -17.64,18.792 0,11.592 6.912,17.424 15.696,17.424 8.784,0 13.752,-5.976 15.48,-9 l -1.08,-0.936 c 0,0 -3.816,6.48 -9.432,6.48 z m -12.528,-20.736 c 1.368,-6.912 6.048,-10.296 9.504,-10.296 3.888,0 5.544,2.952 5.76,10.296 z" stroke-width="0" stroke-linejoin="miter" stroke-miterlimit="2" fill="#5f2dda" stroke="#5f2dda" transform="translate(0 298.576) translate(307.13450000000006 69.72800000000001) scale(1) translate(-593.99844 35.64)"></path>
        <path id="path148606" style="font-style:normal;font-weight:normal;font-size:72px;line-height:1;font-family:'Brandmark Serif 6';font-variant-ligatures:normal;text-align:center;text-anchor:middle" d="m 644.05981,0.648 c 8.352,0 15.48,-3.456 15.48,-10.008 0,-11.592 -20.736,-12.24 -20.736,-18.864 0,-2.736 2.232,-5.688 6.552,-5.688 3.24,0 7.992,3.384 7.92,9.648 0,0 4.68,-0.936 4.68,-4.176 0,-1.296 -0.576,-2.592 -1.8,-3.744 -1.872,-2.16 -2.808,-5.04 -2.808,-7.92 0,-5.184 3.96,-11.664 11.664,-11.664 4.464,0 10.872,1.656 10.872,6.912 0,5.688 -5.76,9.792 -11.664,9.792 v 1.44 h 5.472 v 21.96 c 0,6.768 5.472,12.24 12.24,12.24 2.664,0 5.184,-0.864 7.2,-2.376 l -0.648,-1.008 c -1.224,1.08 -2.736,1.656 -4.392,1.656 -3.744,0 -6.768,-3.024 -6.768,-6.696 v -25.776 h 7.2 v -1.44 h -7.2 v -9.792 c 0,-9.432 -10.368,-10.512 -15.336,-10.512 -5.976,0 -16.92,3.456 -16.92,13.464 0,2.232 0.72,4.464 1.944,6.264 h -0.936 c -7.56,0 -13.392,3.888 -13.392,9.504 0,10.944 19.656,11.52 19.656,19.656 0,2.52 -1.872,5.328 -7.272,5.328 -5.4,0 -8.568,-4.68 -8.352,-10.944 0,0 -4.608,2.376 -4.608,5.76 0,3.312 3.6,6.984 11.952,6.984 z" stroke-width="0" stroke-linejoin="miter" stroke-miterlimit="2" fill="#6f34fe" stroke="#6f34fe" transform="translate(0 298.576) translate(345.24387 50) scale(1) translate(-632.10781 55.368)"></path>
      </g>
      <image xlink:href="" id="icon" style="display: none;" x="0" y="0"></image>
    </g>
  </g>
</svg>